<mxfile host="65bd71144e">
    <diagram id="C2ngzi0zYhqOuTJ3DMhD" name="ページ1">
        <mxGraphModel dx="1130" dy="825" grid="1" gridSize="10" guides="1" tooltips="1" connect="1" arrows="1" fold="1" page="1" pageScale="1" pageWidth="1169" pageHeight="827" math="0" shadow="0">
            <root>
                <mxCell id="0"/>
                <mxCell id="1" parent="0"/>
                <mxCell id="6" value="" style="whiteSpace=wrap;html=1;aspect=fixed;" parent="1" vertex="1">
                    <mxGeometry x="440" y="80" width="200" height="200" as="geometry"/>
                </mxCell>
                <mxCell id="12" value="" style="whiteSpace=wrap;html=1;aspect=fixed;" parent="1" vertex="1">
                    <mxGeometry x="840" y="80" width="200" height="200" as="geometry"/>
                </mxCell>
                <mxCell id="18" value="" style="shape=cylinder3;whiteSpace=wrap;html=1;boundedLbl=1;backgroundOutline=1;size=15;" parent="1" vertex="1">
                    <mxGeometry x="845" y="480" width="190" height="200" as="geometry"/>
                </mxCell>
                <mxCell id="19" value="" style="swimlane;startSize=0;dashed=1;" parent="1" vertex="1">
                    <mxGeometry x="40" y="30" width="640" height="440" as="geometry"/>
                </mxCell>
                <mxCell id="7" value="" style="shape=actor;whiteSpace=wrap;html=1;" parent="19" vertex="1">
                    <mxGeometry x="60" y="70" width="120" height="160" as="geometry"/>
                </mxCell>
                <mxCell id="48" value="&lt;span style=&quot;font-size: 26px;&quot;&gt;JavaScript&lt;/span&gt;&lt;br style=&quot;font-size: 26px;&quot;&gt;&lt;span style=&quot;font-size: 26px;&quot;&gt;React&lt;/span&gt;" style="text;html=1;align=center;verticalAlign=middle;resizable=0;points=[];autosize=1;strokeColor=none;fillColor=none;fontSize=25;" parent="19" vertex="1">
                    <mxGeometry x="190" y="250" width="140" height="80" as="geometry"/>
                </mxCell>
                <mxCell id="52" value="Next.js" style="text;html=1;align=center;verticalAlign=middle;resizable=0;points=[];autosize=1;strokeColor=none;fillColor=none;fontSize=25;" parent="19" vertex="1">
                    <mxGeometry x="210" y="334" width="100" height="40" as="geometry"/>
                </mxCell>
                <mxCell id="54" value="Tailwid CSS" style="text;html=1;align=center;verticalAlign=middle;resizable=0;points=[];autosize=1;strokeColor=none;fillColor=none;fontSize=25;" parent="19" vertex="1">
                    <mxGeometry x="20" y="294" width="160" height="40" as="geometry"/>
                </mxCell>
                <mxCell id="55" value="Web&lt;br&gt;ブラウザ" style="text;html=1;align=center;verticalAlign=middle;resizable=0;points=[];autosize=1;strokeColor=none;fillColor=none;fontSize=20;" parent="19" vertex="1">
                    <mxGeometry x="70" y="155" width="100" height="60" as="geometry"/>
                </mxCell>
                <mxCell id="56" value="クライアントサイド" style="text;html=1;align=center;verticalAlign=middle;resizable=0;points=[];autosize=1;strokeColor=none;fillColor=none;fontSize=14;" vertex="1" parent="19">
                    <mxGeometry y="410" width="150" height="30" as="geometry"/>
                </mxCell>
                <mxCell id="20" value="" style="swimlane;startSize=0;dashed=1;fontSize=9;" parent="1" vertex="1">
                    <mxGeometry x="400" y="47" width="740" height="753" as="geometry"/>
                </mxCell>
                <mxCell id="34" value="Web&lt;br style=&quot;font-size: 25px;&quot;&gt;サーバー" style="text;html=1;strokeColor=none;fillColor=none;align=center;verticalAlign=middle;whiteSpace=wrap;rounded=0;fontSize=25;" parent="20" vertex="1">
                    <mxGeometry x="85" y="103" width="110" height="65" as="geometry"/>
                </mxCell>
                <mxCell id="35" value="AP&lt;br&gt;サーバー" style="text;html=1;strokeColor=none;fillColor=none;align=center;verticalAlign=middle;whiteSpace=wrap;rounded=0;fontSize=25;" parent="20" vertex="1">
                    <mxGeometry x="485" y="103" width="110" height="65" as="geometry"/>
                </mxCell>
                <mxCell id="42" value="" style="ellipse;whiteSpace=wrap;html=1;fontSize=30;" parent="20" vertex="1">
                    <mxGeometry x="580" y="586" width="125" height="90" as="geometry"/>
                </mxCell>
                <mxCell id="44" value="DBMS" style="text;html=1;align=center;verticalAlign=middle;resizable=0;points=[];autosize=1;strokeColor=none;fillColor=none;fontSize=25;" parent="20" vertex="1">
                    <mxGeometry x="592.5" y="611" width="100" height="40" as="geometry"/>
                </mxCell>
                <mxCell id="45" value="TypeScript" style="text;html=1;align=center;verticalAlign=middle;resizable=0;points=[];autosize=1;strokeColor=none;fillColor=none;fontSize=26;" parent="20" vertex="1">
                    <mxGeometry x="120" y="370" width="150" height="40" as="geometry"/>
                </mxCell>
                <mxCell id="50" value="PHP&lt;br&gt;Laravel" style="text;html=1;align=center;verticalAlign=middle;resizable=0;points=[];autosize=1;strokeColor=none;fillColor=none;fontSize=25;" parent="20" vertex="1">
                    <mxGeometry x="315" y="260" width="110" height="70" as="geometry"/>
                </mxCell>
                <mxCell id="51" value="Eloquent" style="text;html=1;align=center;verticalAlign=middle;resizable=0;points=[];autosize=1;strokeColor=none;fillColor=none;fontSize=25;" parent="20" vertex="1">
                    <mxGeometry x="315" y="330" width="120" height="40" as="geometry"/>
                </mxCell>
                <mxCell id="53" value="Prisma" style="text;html=1;align=center;verticalAlign=middle;resizable=0;points=[];autosize=1;strokeColor=none;fillColor=none;fontSize=25;" parent="20" vertex="1">
                    <mxGeometry x="145" y="433" width="100" height="40" as="geometry"/>
                </mxCell>
                <mxCell id="57" value="サーバーサイド" style="text;html=1;align=center;verticalAlign=middle;resizable=0;points=[];autosize=1;strokeColor=none;fillColor=none;fontSize=14;" vertex="1" parent="20">
                    <mxGeometry x="620" width="120" height="30" as="geometry"/>
                </mxCell>
                <mxCell id="26" value="" style="shape=singleArrow;whiteSpace=wrap;html=1;" parent="1" vertex="1">
                    <mxGeometry x="290" y="90" width="100" height="60" as="geometry"/>
                </mxCell>
                <mxCell id="27" value="" style="shape=singleArrow;direction=west;whiteSpace=wrap;html=1;" parent="1" vertex="1">
                    <mxGeometry x="290" y="210" width="100" height="60" as="geometry"/>
                </mxCell>
                <mxCell id="28" value="" style="shape=singleArrow;whiteSpace=wrap;html=1;" parent="1" vertex="1">
                    <mxGeometry x="690" y="90" width="100" height="60" as="geometry"/>
                </mxCell>
                <mxCell id="29" value="" style="shape=singleArrow;direction=west;whiteSpace=wrap;html=1;" parent="1" vertex="1">
                    <mxGeometry x="690" y="210" width="100" height="60" as="geometry"/>
                </mxCell>
                <mxCell id="31" value="" style="shape=singleArrow;direction=north;whiteSpace=wrap;html=1;" parent="1" vertex="1">
                    <mxGeometry x="850" y="330" width="60" height="100" as="geometry"/>
                </mxCell>
                <mxCell id="32" value="" style="shape=singleArrow;direction=south;whiteSpace=wrap;html=1;" parent="1" vertex="1">
                    <mxGeometry x="970" y="330" width="60" height="100" as="geometry"/>
                </mxCell>
                <mxCell id="58" value="DB&lt;br&gt;サーバー" style="text;html=1;strokeColor=none;fillColor=none;align=center;verticalAlign=middle;whiteSpace=wrap;rounded=0;fontSize=25;" vertex="1" parent="1">
                    <mxGeometry x="885" y="550" width="110" height="65" as="geometry"/>
                </mxCell>
            </root>
        </mxGraphModel>
    </diagram>
</mxfile>